# xmcd
#
# Track frame offsets: 
#        150
#        8437
#        19063
#        30597
#        42682
#        52243
#        62791
#        72294
#        83603
#        92621
#        101635
#        111093
#        120283
#        132853
#        143554
#        151959
#        161679
#        172293
#        180825
#        191314
#        201471
#        210430
#        220715
#        232712
#        242592
#        255639
#        267538
#        278953
#        288127
#        297655
#        308610
#        319509
#
# Disc length: 4400 seconds
#
# Revision: 3
# Processed by: cddbd v1.5.2PL0 Copyright (c) Steve Scherf et al.
# Submitted via: ExactAudioCopyFreeDBPlugin 1.0
#
DISCID=bf112e20
DTITLE=Various Artist - The Complete Satellite Records Singles
DYEAR=2017
DGENRE=Soul
TTITLE0=Fred Byler and the Tunetts - Give Me Your Love
TTITLE1=Fred Byler and the Tunetts - Blue Roses
TTITLE2=Don Willis - Boppin' High School Baby
TTITLE3=Don Willis - Warrior Sam
TTITLE4=Donna Rae and the Sunbeams - Whisper Your Love
TTITLE5=Donna Rae and the Sunbeams - Little Fool
TTITLE6=Ray Scott and the Demens - You Drive Me Crazy
TTITLE7=Ray Scott and the Demens - Say Anything But Not Goodbye
TTITLE8=The Velvetones - Fool in Love
TTITLE9=The Velvetones - Someday
TTITLE10=Charles Heinz - Prove Your Love
TTITLE11=Charles Heinz - Destiny
TTITLE12=Carla and Rufus Thomas - 'Cause I Love You
TTITLE13=Carla and Rufus Thomas - Deep Down Inside
TTITLE14=Charles Heinz - Suddenly
TTITLE15=Charles Heinz - Nobody Cares
TTITLE16=Carla Thomas - Gee Whiz (Look at His Eyes)
TTITLE17=Carla Thomas - For You
TTITLE18=The Chips - As You Can See
TTITLE19=The Chips - You Make Me Feel So Good
TTITLE20=Jimmy and The Spartans - You're My Girl
TTITLE21=Jimmy and The Spartans - Why Doesn't She Notice Me
TTITLE22=The Mar-Keys - Last Night
TTITLE23=The Mar-Keys - Night Before
TTITLE24=Prince Conley - I'm Going Home
TTITLE25=Prince Conley - All the Way
TTITLE26=Nick Charles - The Right Girl
TTITLE27=Nick Charles - Ain't That Love
TTITLE28=Hoyt Johnson - I Just Can't Learn
TTITLE29=Hoyt Johnson - Cindy
TTITLE30=Barba Stephens - The Life I Live
TTITLE31=Barbara Stephens - I Don't Worry
EXTD=
EXTT0=
EXTT1=
EXTT2=
EXTT3=
EXTT4=
EXTT5=
EXTT6=
EXTT7=
EXTT8=
EXTT9=
EXTT10=
EXTT11=
EXTT12=
EXTT13=
EXTT14=
EXTT15=
EXTT16=
EXTT17=
EXTT18=
EXTT19=
EXTT20=
EXTT21=
EXTT22=
EXTT23=
EXTT24=
EXTT25=
EXTT26=
EXTT27=
EXTT28=
EXTT29=
EXTT30=
EXTT31=
PLAYORDER=
